# xmcd
#
# Track frame offsets:
#	150
#	15787
#	28872
#	45034
#	56236
#	69802
#	83872
#	99964
#	115199
#	129338
#	147230
#	158771
#	170876
#	186233
#	200244
#	209564
#
# Disc length: 2968 seconds
#
# Revision: 0
# Processed by: cddbd v1.5.2PL0 Copyright (c) Steve Scherf et al.
# Submitted via: EasyCDDAExtractor 16.1.0.1
#
DISCID=d80b9610
DTITLE=Delbert McClinton - Under Suspicion - The ABC Sessions [Disc 1]
DYEAR=2013
DGENRE=Blues
TTITLE0=Love Rustler
TTITLE1=Let Love Come Between Us
TTITLE2=Under Suspicion
TTITLE3=Some People
TTITLE4=As Long As I Got You
TTITLE5=Hold On To Your Hiney
TTITLE6=In The Jailhouse Now
TTITLE7=That Woman
TTITLE8=Ain't No More Cane
TTITLE9=Turn On Your Love Light
TTITLE10=It's Love Baby (24 Hours A Day)
TTITLE11=Please, Please, Please
TTITLE12=Lovey Dovey
TTITLE13=Before You Accuse Me
TTITLE14=Blue Monday
TTITLE15=I'm Dyin', Fast As I Can
EXTD=
EXTT0=
EXTT1=
EXTT2=
EXTT3=
EXTT4=
EXTT5=
EXTT6=
EXTT7=
EXTT8=
EXTT9=
EXTT10=
EXTT11=
EXTT12=
EXTT13=
EXTT14=
EXTT15=
PLAYORDER=
